# xmcd
#
# Track frame offsets:
#	150
#	11336
#	28760
#	42321
#	57446
#	76512
#	91313
#	102412
#	120194
#	134090
#
# Disc length: 2102 seconds
# Revision: 0
# Processed by: cddbd v1.5.2PL0 Copyright (c) Steve Scherf et al.
# Submitted via: dBpowerAMP V12.0
#
DISCID=7508340a
DTITLE=Stompy and the Heat - Stompy and the Heat
DYEAR=2012
DGENRE=Blues
TTITLE0=Alien Death Ray
TTITLE1=Thanks To You
TTITLE2=Black Lightning
TTITLE3=Here Comes Stompy
TTITLE4=Zombie
TTITLE5=Your Affections
TTITLE6=Badaling
TTITLE7=Don't Tell Me
TTITLE8=Honky Tonk Night Time Man
TTITLE9=The Last Wave 
EXTD=
EXTT0=
EXTT1=
EXTT2=
EXTT3=
EXTT4=
EXTT5=
EXTT6=
EXTT7=
EXTT8=
EXTT9=
PLAYORDER=
